<svg width="36" height="36" viewBox="0 0 36 36" fill="none" xmlns="http://www.w3.org/2000/svg">
    <circle cx="18" cy="18" r="18" fill="#EB5757"/>
    <path d="M12.8073 10.7785C12.5382 10.5094 12.1732 10.3582 11.7927 10.3582C11.4122 10.3582 11.0472 10.5094 10.7782 10.7785C10.5091 11.0475 10.3579 11.4125 10.3579 11.793C10.3579 12.1735 10.5091 12.5385 10.7782 12.8076L16.5273 18.5566L10.7782 24.3057C10.5091 24.5748 10.3579 24.9397 10.3579 25.3203C10.3579 25.7008 10.5091 26.0657 10.7782 26.3348C11.0472 26.6039 11.4122 26.7551 11.7927 26.7551C12.1732 26.7551 12.5382 26.6039 12.8073 26.3348L18.5563 20.5857L24.3054 26.3348C24.5745 26.6039 24.9395 26.7551 25.32 26.7551C25.7005 26.7551 26.0654 26.6039 26.3345 26.3348C26.6036 26.0657 26.7548 25.7008 26.7548 25.3203C26.7548 24.9397 26.6036 24.5748 26.3345 24.3057L20.5854 18.5566L26.3345 12.8076C26.6036 12.5385 26.7548 12.1735 26.7548 11.793C26.7548 11.4125 26.6036 11.0475 26.3345 10.7785C26.0654 10.5094 25.7005 10.3582 25.32 10.3582C24.9395 10.3582 24.5745 10.5094 24.3054 10.7785L18.5563 16.5276L12.8073 10.7785Z" fill="white"/>
</svg>
