<svg width="20" height="22" viewBox="0 0 20 22" fill="none" xmlns="http://www.w3.org/2000/svg">
<path d="M10.0038 7.68299C9.2982 7.68299 8.6374 7.95675 8.13708 8.45707C7.63912 8.95739 7.363 9.61819 7.363 10.3238C7.363 11.0295 7.63912 11.6903 8.13708 12.1906C8.6374 12.6886 9.2982 12.9647 10.0038 12.9647C10.7095 12.9647 11.3703 12.6886 11.8706 12.1906C12.3686 11.6903 12.6447 11.0295 12.6447 10.3238C12.6447 9.61819 12.3686 8.95739 11.8706 8.45707C11.6262 8.21082 11.3354 8.01558 11.0149 7.88269C10.6944 7.74981 10.3508 7.68193 10.0038 7.68299ZM19.7341 13.2408L18.1907 11.9216C18.2638 11.4732 18.3016 11.0153 18.3016 10.5598C18.3016 10.1043 18.2638 9.64415 18.1907 9.19811L19.7341 7.87887C19.8507 7.77905 19.9342 7.64611 19.9734 7.49772C20.0126 7.34933 20.0057 7.19252 19.9536 7.04815L19.9324 6.98679C19.5076 5.79897 18.8711 4.69795 18.0538 3.73706L18.0113 3.6875C17.9121 3.57081 17.7798 3.48692 17.6319 3.4469C17.4841 3.40687 17.3275 3.41259 17.183 3.4633L15.2666 4.14534C14.5586 3.56478 13.7704 3.10694 12.9161 2.78834L12.5456 0.784701C12.5176 0.63376 12.4444 0.494898 12.3356 0.386563C12.2269 0.278228 12.0877 0.205548 11.9367 0.17818L11.873 0.16638C10.6458 -0.05546 9.35248 -0.05546 8.12528 0.16638L8.06156 0.17818C7.91051 0.205548 7.77136 0.278228 7.66261 0.386563C7.55385 0.494898 7.48063 0.63376 7.45268 0.784701L7.0798 2.79778C6.23357 3.11892 5.44525 3.57565 4.74575 4.15006L2.81527 3.4633C2.67076 3.41219 2.51411 3.40626 2.36615 3.44631C2.21819 3.48636 2.08592 3.57048 1.98691 3.6875L1.94443 3.73706C1.12856 4.69898 0.492255 5.79972 0.0658702 6.98679L0.0446302 7.04815C-0.0615699 7.34315 0.0257502 7.67355 0.26411 7.87887L1.82643 9.21227C1.75327 9.65595 1.71787 10.1091 1.71787 10.5575C1.71787 11.0106 1.75327 11.4637 1.82643 11.9027L0.26883 13.2361C0.152236 13.3359 0.0687882 13.4688 0.0295827 13.6172C-0.00962273 13.7656 -0.00272807 13.9224 0.0493501 14.0668L0.0705902 14.1282C0.497751 15.3152 1.12787 16.4126 1.94915 17.3779L1.99163 17.4274C2.09088 17.5441 2.22316 17.628 2.37103 17.668C2.5189 17.7081 2.67543 17.7023 2.81999 17.6516L4.75047 16.9649C5.45375 17.5431 6.23728 18.0009 7.08452 18.3172L7.4574 20.3302C7.48535 20.4812 7.55857 20.62 7.66733 20.7284C7.77608 20.8367 7.91523 20.9094 8.06628 20.9368L8.13 20.9486C9.36927 21.1716 10.6384 21.1716 11.8777 20.9486L11.9414 20.9368C12.0924 20.9094 12.2316 20.8367 12.3404 20.7284C12.4491 20.62 12.5223 20.4812 12.5503 20.3302L12.9208 18.3266C13.7751 18.0056 14.5634 17.5502 15.2714 16.9696L17.1877 17.6516C17.3322 17.7027 17.4888 17.7087 17.6368 17.6686C17.7848 17.6286 17.917 17.5445 18.016 17.4274L18.0585 17.3779C18.8798 16.4079 19.5099 15.3152 19.9371 14.1282L19.9583 14.0668C20.0598 13.7742 19.9725 13.4461 19.7341 13.2408ZM10.0038 14.4727C7.71228 14.4727 5.85496 12.6154 5.85496 10.3238C5.85496 8.03227 7.71228 6.17495 10.0038 6.17495C12.2954 6.17495 14.1527 8.03227 14.1527 10.3238C14.1527 12.6154 12.2954 14.4727 10.0038 14.4727Z" fill="black" fill-opacity="0.5"/>
</svg>
